<?xml version="1.0" encoding="UTF-8" standalone="no"?>
<!DOCTYPE svg PUBLIC "-//W3C//DTD SVG 1.1//EN" "http://www.w3.org/Graphics/SVG/1.1/DTD/svg11.dtd">
<svg width="100%" height="100%" viewBox="0 0 680 553" version="1.1" xmlns="http://www.w3.org/2000/svg" xmlns:xlink="http://www.w3.org/1999/xlink" xml:space="preserve" xmlns:serif="http://www.serif.com/" style="fill-rule:evenodd;clip-rule:evenodd;stroke-linejoin:round;stroke-miterlimit:2;">
    <g id="Artboard1" transform="matrix(1,0,0,1,-149.739583,-234.375)">
        <rect x="149.74" y="234.375" width="679.49" height="552.133" style="fill:none;"/>
        <clipPath id="_clip1">
            <rect x="149.74" y="234.375" width="679.49" height="552.133"/>
        </clipPath>
        <g clip-path="url(#_clip1)">
            <g transform="matrix(2.254222,0,0,2.254222,-1780.946023,-947.972115)">
                <g transform="matrix(107.88686,0,0,107.88686,1161.657445,751.006806)">
                </g>
                <text x="850.324px" y="751.007px" style="font-family:'FranklinGothic-Demi', 'Franklin Gothic Demi', sans-serif;font-size:107.887px;fill:rgb(255,173,16);">m<tspan x="938.193px 986.236px " y="751.007px 751.007px ">y </tspan>lif<tspan x="1103.974px " y="751.007px ">e</tspan></text>
            </g>
            <g transform="matrix(1.885787,0,0,1.885787,-483.5121,34.340141)">
                <g transform="matrix(163.134892,0,0,163.134892,700.260139,274.111979)">
                </g>
                <text x="527.407px" y="274.112px" style="font-family:'FranklinGothic-Demi', 'Franklin Gothic Demi', sans-serif;font-size:163.135px;fill:rgb(255,173,16);">5s</text>
            </g>
            <g transform="matrix(0.842373,0,0,0.802288,-17.390982,183.799026)">
                <rect x="199.282" y="63.507" width="384.114" height="398.437" style="fill:white;"/>
            </g>
            <g transform="matrix(1,0,0,1,-1.864583,-4.833333)">
                <rect x="152.344" y="239.583" width="152.995" height="152.995" style="fill:rgb(255,173,16);"/>
            </g>
            <g transform="matrix(1,0,0,1,168.708333,-4.833333)">
                <rect x="152.344" y="239.583" width="152.995" height="152.995" style="fill:rgb(255,173,16);"/>
            </g>
            <g transform="matrix(1,0,0,1,-1.864583,161.833333)">
                <rect x="152.344" y="239.583" width="152.995" height="152.995" style="fill:rgb(255,173,16);"/>
            </g>
            <g transform="matrix(1,0,0,1,168.708333,161.833333)">
                <rect x="152.344" y="239.583" width="152.995" height="152.995" style="fill:rgb(255,173,16);"/>
            </g>
            <g transform="matrix(1,0,0,1,0.251302,1.375)">
                <rect x="340.169" y="273.112" width="114.258" height="114.258" style="fill:white;"/>
            </g>
        </g>
    </g>
</svg>
